<svg width="31" height="29" viewBox="0 0 31 29" fill="none" xmlns="http://www.w3.org/2000/svg">
<path d="M11.3778 17.893L19.2708 3.63713C19.3789 3.4417 19.488 3.24705 19.5855 3.04503C19.674 2.86161 19.7492 2.67639 19.7981 2.47631C19.9019 2.05535 19.8741 1.61657 19.7129 1.21474C19.553 0.814966 19.2715 0.481329 18.9119 0.264716C18.5553 0.0488504 18.1356 -0.0388206 17.7223 0.0161995C17.3081 0.0717411 16.9299 0.266137 16.6318 0.570066C16.4904 0.714474 16.3739 0.875029 16.266 1.04669C16.1471 1.23566 16.0399 1.43148 15.9314 1.62691L15.4323 2.52836L14.9331 1.62691C14.825 1.43122 14.7178 1.23553 14.5989 1.04669C14.4908 0.875029 14.3743 0.714474 14.2327 0.570066C13.935 0.266137 13.5568 0.0718702 13.1426 0.0159411C12.7293 -0.038939 12.3096 0.0488193 11.953 0.264716C11.5934 0.481329 11.3118 0.814966 11.1517 1.21474C10.9908 1.61645 10.963 2.05535 11.0665 2.47631C11.1156 2.67652 11.1907 2.86174 11.2793 3.04503C11.3766 3.24705 11.4858 3.44157 11.5941 3.63713L13.2061 6.54893L6.9254 17.893H2.62144C2.40495 17.893 2.1886 17.8921 1.97225 17.9049C1.77565 17.9165 1.58423 17.9416 1.39358 17.9971C0.992129 18.1141 0.641571 18.3585 0.388275 18.7049C0.1364 19.0492 0 19.4708 0 19.9035C0 20.3364 0.136529 20.7575 0.388275 21.1018C0.641442 21.4483 0.992129 21.6927 1.39345 21.8096C1.58423 21.8651 1.77578 21.8901 1.97225 21.9019C2.1886 21.9149 2.40495 21.9136 2.62144 21.9136H19.5389C19.561 21.8675 19.6151 21.7464 19.6681 21.5652C20.2041 19.7374 18.8729 17.893 17.0399 17.893H11.3778ZM4.02096 22.5719L2.9977 24.5105C2.89204 24.7111 2.78535 24.9109 2.68977 25.1182C2.60322 25.3065 2.5296 25.4966 2.48168 25.702C2.38028 26.1342 2.40728 26.5847 2.56499 26.9974C2.72154 27.4075 2.99718 27.7505 3.34903 27.9725C3.70127 28.1947 4.10995 28.2846 4.51321 28.2276C4.91867 28.1708 5.28886 27.9711 5.58052 27.659C5.71898 27.5107 5.83291 27.3459 5.93857 27.1699C6.05507 26.9757 6.15996 26.7748 6.266 26.5742L7.75 23.7626C7.63427 23.5701 6.5264 21.8633 4.02096 22.5719ZM30.6113 18.6897C30.3622 18.3522 30.0084 18.1066 29.6051 17.9913C29.4145 17.9364 29.2227 17.9117 29.0261 17.9002C28.8093 17.8874 28.5931 17.8885 28.3764 17.8885H24.087L18.4177 7.79152C17.5581 8.69633 17.1736 9.70964 17.0262 10.6301C16.8125 11.9648 17.0736 13.3341 17.7315 14.5056L24.5439 26.6386C24.6524 26.8316 24.7596 27.0248 24.8785 27.2115C24.9866 27.3807 25.1031 27.5392 25.2448 27.6816C25.5432 27.9817 25.9214 28.1736 26.3362 28.2283C26.7485 28.283 27.1667 28.1967 27.5267 27.983C27.8863 27.7695 28.1684 27.44 28.3288 27.0456C28.4898 26.6488 28.5174 26.2157 28.4138 25.8003C28.3646 25.6028 28.2896 25.4199 28.2007 25.239C28.1034 25.0397 27.9943 24.8476 27.8858 24.6546L26.3151 21.8566H28.3766C28.5932 21.8566 28.8095 21.8578 29.0262 21.845C29.2228 21.8334 29.4146 21.8088 29.6053 21.7539C30.0086 21.6386 30.3624 21.393 30.6115 21.0555C30.8643 20.713 31.0005 20.2983 31 19.8726C31.0005 19.4469 30.8642 19.0322 30.6113 18.6897Z" fill="#0D96F6"/>
</svg>
